<?xml version="1.0" encoding="utf-8"?>
<!-- Generator: Adobe Illustrator 18.1.1, SVG Export Plug-In . SVG Version: 6.00 Build 0)  -->
<svg version="1.1" id="レイヤー_1" xmlns="http://www.w3.org/2000/svg" xmlns:xlink="http://www.w3.org/1999/xlink" x="0px"
	 y="0px" viewBox="0 0 123.62 25.272" enable-background="new 0 0 123.62 25.272" xml:space="preserve">
<g>
	<path d="M0.576,1.728H1.8v3.66h1.512v-3.66h1.224v8.544H3.312V6.468H1.8v3.804H0.576V1.728z"/>
	<path d="M7.044,1.728h1.02l1.908,8.544H8.748l-0.36-1.836H6.72l-0.36,1.836H5.136L7.044,1.728z M7.56,4.188H7.536l-0.6,3.096H8.16
		L7.56,4.188z"/>
	<path d="M11.375,2.88H9.959V1.728h4.056V2.88H12.6v7.392h-1.224V2.88z"/>
	<path d="M18.516,4.188h-1.224V3.912c0-0.28-0.066-0.522-0.198-0.726c-0.132-0.204-0.354-0.306-0.666-0.306
		c-0.168,0-0.306,0.032-0.414,0.096c-0.108,0.064-0.192,0.146-0.252,0.246c-0.06,0.1-0.102,0.216-0.126,0.348
		C15.611,3.702,15.6,3.84,15.6,3.984c0,0.168,0.006,0.31,0.018,0.426c0.012,0.116,0.042,0.216,0.09,0.3s0.118,0.158,0.21,0.222
		c0.092,0.064,0.218,0.128,0.378,0.192l0.936,0.372c0.272,0.104,0.492,0.226,0.66,0.366c0.168,0.14,0.298,0.304,0.39,0.492
		c0.092,0.188,0.154,0.404,0.186,0.648c0.032,0.244,0.048,0.522,0.048,0.834c0,0.36-0.036,0.694-0.108,1.002
		c-0.072,0.308-0.19,0.572-0.354,0.792c-0.164,0.22-0.382,0.394-0.654,0.522s-0.604,0.192-0.996,0.192
		c-0.296,0-0.572-0.052-0.828-0.156c-0.256-0.104-0.476-0.246-0.66-0.426c-0.184-0.18-0.33-0.394-0.438-0.642
		s-0.162-0.516-0.162-0.804V7.86h1.224v0.384c0,0.224,0.066,0.426,0.198,0.606c0.132,0.18,0.354,0.27,0.666,0.27
		c0.208,0,0.37-0.03,0.486-0.09c0.116-0.06,0.204-0.144,0.264-0.252s0.098-0.242,0.114-0.402c0.016-0.16,0.024-0.336,0.024-0.528
		c0-0.224-0.008-0.408-0.024-0.552c-0.016-0.144-0.05-0.26-0.102-0.348c-0.052-0.088-0.124-0.16-0.216-0.216
		c-0.092-0.056-0.214-0.116-0.366-0.18l-0.876-0.36c-0.528-0.216-0.882-0.502-1.062-0.858s-0.27-0.802-0.27-1.338
		c0-0.32,0.044-0.624,0.132-0.912s0.218-0.536,0.39-0.744c0.172-0.208,0.39-0.374,0.654-0.498c0.264-0.124,0.572-0.186,0.924-0.186
		c0.304,0,0.582,0.056,0.834,0.168c0.252,0.112,0.468,0.26,0.648,0.444s0.318,0.39,0.414,0.618c0.096,0.228,0.144,0.462,0.144,0.702
		V4.188z"/>
	<path d="M23.388,8.352c0,0.28-0.052,0.54-0.156,0.78c-0.104,0.24-0.246,0.45-0.426,0.63c-0.18,0.18-0.39,0.322-0.63,0.426
		c-0.24,0.104-0.497,0.156-0.768,0.156c-0.272,0-0.528-0.052-0.768-0.156c-0.24-0.104-0.45-0.246-0.63-0.426
		c-0.18-0.18-0.322-0.39-0.426-0.63c-0.104-0.24-0.156-0.5-0.156-0.78V1.728h1.224v6.504c0,0.304,0.072,0.528,0.216,0.672
		s0.324,0.216,0.54,0.216c0.216,0,0.396-0.072,0.54-0.216s0.216-0.368,0.216-0.672V1.728h1.224V8.352z"/>
	<path d="M24.491,1.728h1.176l1.848,5.148h0.024V1.728h1.224v8.544h-1.152l-1.872-5.136h-0.024v5.136h-1.224V1.728z"/>
	<path d="M29.867,1.728h3.648V2.88h-2.424v2.508h2.112V6.54h-2.112v2.508h2.424v1.224h-3.648V1.728z"/>
	<path d="M36.539,1.728h1.176l1.572,4.524h0.024l1.56-4.524h1.188v8.544h-1.224V5.076h-0.024l-1.212,3.672h-0.612l-1.2-3.672h-0.024
		v5.196h-1.224V1.728z"/>
	<path d="M43.247,1.728h1.224v8.544h-1.224V1.728z"/>
	<path d="M45.659,1.728h1.224v3.9h0.024l1.788-3.9h1.224l-1.668,3.42l1.98,5.124h-1.296L47.542,6.48l-0.66,1.236v2.556h-1.224V1.728
		z"/>
	<path d="M54.73,8.352c0,0.28-0.052,0.54-0.156,0.78c-0.104,0.24-0.246,0.45-0.426,0.63c-0.18,0.18-0.39,0.322-0.63,0.426
		c-0.24,0.104-0.497,0.156-0.768,0.156c-0.272,0-0.528-0.052-0.768-0.156c-0.24-0.104-0.45-0.246-0.63-0.426
		c-0.18-0.18-0.322-0.39-0.426-0.63c-0.104-0.24-0.156-0.5-0.156-0.78V1.728h1.224v6.504c0,0.304,0.072,0.528,0.216,0.672
		s0.324,0.216,0.54,0.216c0.216,0,0.396-0.072,0.54-0.216s0.216-0.368,0.216-0.672V1.728h1.224V8.352z"/>
	<path d="M58.114,1.728h3.647V2.88h-2.424v2.508h2.112V6.54h-2.112v2.508h2.424v1.224h-3.647V1.728z"/>
	<path d="M63.682,5.796l-1.596-4.068h1.296l0.924,2.532l0.936-2.532h1.296l-1.632,4.068l1.765,4.476h-1.296l-1.068-2.88l-1.056,2.88
		h-1.297L63.682,5.796z"/>
	<path d="M67.222,1.728h1.836c0.336,0,0.632,0.044,0.888,0.132c0.256,0.088,0.488,0.244,0.696,0.468s0.352,0.486,0.432,0.786
		c0.08,0.3,0.12,0.707,0.12,1.218c0,0.376-0.022,0.698-0.065,0.966c-0.045,0.268-0.139,0.518-0.282,0.75
		c-0.168,0.28-0.393,0.498-0.672,0.654c-0.28,0.156-0.648,0.234-1.104,0.234h-0.624v3.336h-1.224V1.728z M68.445,5.784h0.588
		c0.248,0,0.44-0.036,0.576-0.108c0.136-0.072,0.236-0.17,0.3-0.294c0.064-0.124,0.103-0.274,0.114-0.45
		c0.012-0.176,0.019-0.372,0.019-0.588c0-0.2-0.007-0.39-0.019-0.57s-0.048-0.336-0.108-0.468c-0.06-0.132-0.153-0.236-0.281-0.312
		S69.321,2.88,69.081,2.88h-0.636V5.784z"/>
	<path d="M72.033,3.744c0-0.344,0.061-0.648,0.18-0.912c0.12-0.264,0.278-0.482,0.475-0.654c0.195-0.172,0.416-0.302,0.66-0.39
		c0.243-0.088,0.489-0.132,0.737-0.132s0.494,0.044,0.738,0.132s0.464,0.218,0.66,0.39c0.196,0.172,0.354,0.39,0.474,0.654
		s0.181,0.568,0.181,0.912v4.512c0,0.352-0.061,0.658-0.181,0.918c-0.12,0.26-0.277,0.476-0.474,0.648
		c-0.196,0.172-0.416,0.302-0.66,0.39s-0.49,0.132-0.738,0.132s-0.494-0.044-0.737-0.132c-0.244-0.088-0.465-0.218-0.66-0.39
		c-0.196-0.172-0.354-0.388-0.475-0.648c-0.119-0.26-0.18-0.566-0.18-0.918V3.744z M73.257,8.256c0,0.296,0.082,0.514,0.246,0.654
		c0.164,0.14,0.358,0.21,0.582,0.21c0.225,0,0.418-0.07,0.582-0.21c0.164-0.14,0.246-0.358,0.246-0.654V3.744
		c0-0.296-0.082-0.514-0.246-0.654c-0.164-0.14-0.357-0.21-0.582-0.21c-0.224,0-0.418,0.07-0.582,0.21
		c-0.164,0.14-0.246,0.358-0.246,0.654V8.256z"/>
	<path d="M79.377,1.728h1.224v1.224h-1.224V1.728z M79.377,4.188h1.224v6.084h-1.224V4.188z"/>
	<path d="M81.608,4.188h1.224v0.588h0.024c0.128-0.192,0.282-0.35,0.462-0.474c0.18-0.124,0.41-0.186,0.69-0.186
		c0.151,0,0.304,0.026,0.456,0.078c0.151,0.052,0.288,0.138,0.407,0.258c0.12,0.12,0.217,0.274,0.288,0.462
		c0.072,0.188,0.108,0.418,0.108,0.69v4.668h-1.224V6.06c0-0.224-0.053-0.4-0.156-0.528c-0.104-0.127-0.252-0.192-0.444-0.192
		c-0.232,0-0.392,0.072-0.479,0.216C82.876,5.7,82.832,5.908,82.832,6.18v4.092h-1.224V4.188z"/>
	<path d="M88.532,1.728h1.176l1.848,5.148h0.024V1.728h1.224v8.544h-1.151L89.78,5.136h-0.024v5.136h-1.224V1.728z"/>
	<path d="M94.952,7.692V8.52c0,0.192,0.054,0.34,0.162,0.444c0.107,0.104,0.254,0.156,0.438,0.156c0.232,0,0.386-0.068,0.462-0.204
		c0.076-0.136,0.122-0.272,0.139-0.408h1.224c0,0.256-0.042,0.496-0.126,0.72s-0.206,0.416-0.366,0.576
		c-0.16,0.168-0.352,0.3-0.576,0.396c-0.224,0.096-0.476,0.144-0.756,0.144c-0.376,0-0.7-0.08-0.972-0.24
		c-0.272-0.16-0.48-0.372-0.624-0.636c-0.088-0.16-0.148-0.344-0.18-0.552c-0.032-0.208-0.048-0.436-0.048-0.684V6.228
		c0-0.248,0.016-0.476,0.048-0.684c0.031-0.208,0.092-0.392,0.18-0.552c0.144-0.264,0.352-0.476,0.624-0.636
		c0.271-0.16,0.596-0.24,0.972-0.24c0.28,0,0.534,0.048,0.763,0.144c0.228,0.096,0.42,0.23,0.575,0.402
		c0.156,0.172,0.276,0.374,0.36,0.606s0.126,0.48,0.126,0.744v1.68H94.952z M94.952,6.732h1.2V6.036
		c0-0.232-0.055-0.406-0.162-0.522c-0.108-0.116-0.254-0.174-0.438-0.174c-0.184,0-0.33,0.058-0.438,0.174
		c-0.108,0.116-0.162,0.29-0.162,0.522V6.732z"/>
	<path d="M102.753,10.272h-1.08L101,6.66h-0.023l-0.672,3.612h-1.08l-1.44-6.084h1.296l0.744,3.78h0.024l0.684-3.78h0.96l0.648,3.78
		h0.023l0.732-3.78h1.296L102.753,10.272z"/>
	<path d="M108.151,6.66l-1.68-4.932h1.296l0.984,3.396h0.023l0.984-3.396h1.296l-1.68,4.932v3.612h-1.225V6.66z"/>
	<path d="M111.488,6.228c0-0.248,0.016-0.476,0.048-0.684c0.031-0.208,0.092-0.392,0.18-0.552c0.144-0.264,0.352-0.476,0.624-0.636
		c0.271-0.16,0.596-0.24,0.972-0.24s0.7,0.08,0.973,0.24c0.271,0.16,0.479,0.372,0.624,0.636c0.088,0.16,0.147,0.344,0.18,0.552
		s0.048,0.436,0.048,0.684v2.004c0,0.248-0.016,0.476-0.048,0.684s-0.092,0.392-0.18,0.552c-0.145,0.264-0.353,0.476-0.624,0.636
		c-0.272,0.16-0.597,0.24-0.973,0.24s-0.7-0.08-0.972-0.24c-0.272-0.16-0.48-0.372-0.624-0.636c-0.088-0.16-0.148-0.344-0.18-0.552
		c-0.032-0.208-0.048-0.436-0.048-0.684V6.228z M112.712,8.424c0,0.232,0.054,0.406,0.162,0.522
		c0.107,0.116,0.254,0.174,0.438,0.174c0.185,0,0.33-0.058,0.438-0.174c0.107-0.116,0.162-0.29,0.162-0.522V6.036
		c0-0.232-0.055-0.406-0.162-0.522c-0.108-0.116-0.254-0.174-0.438-0.174c-0.184,0-0.33,0.058-0.438,0.174
		c-0.108,0.116-0.162,0.29-0.162,0.522V8.424z"/>
	<path d="M116.036,4.188h1.224v0.648c0.248-0.224,0.492-0.4,0.732-0.528s0.536-0.192,0.888-0.192v1.296
		c-0.12-0.048-0.244-0.072-0.372-0.072s-0.266,0.022-0.414,0.066c-0.147,0.044-0.283,0.118-0.407,0.222s-0.227,0.24-0.307,0.408
		s-0.12,0.376-0.12,0.624v3.612h-1.224V4.188z"/>
	<path d="M119.372,1.728h1.224V6.84h0.024l1.476-2.652h1.225l-1.452,2.472l1.752,3.612h-1.332l-1.104-2.628l-0.589,0.924v1.704
		h-1.224V1.728z"/>
	<path d="M0.528,18.336H4.14v1.224H0.528V18.336z"/>
	<path d="M7.476,13.728h1.788c0.392,0,0.726,0.06,1.002,0.18c0.276,0.12,0.502,0.28,0.678,0.48c0.176,0.2,0.302,0.43,0.378,0.69
		c0.076,0.26,0.114,0.53,0.114,0.81V16.2c0,0.232-0.018,0.428-0.054,0.588s-0.09,0.3-0.162,0.42c-0.072,0.12-0.16,0.226-0.264,0.318
		c-0.104,0.092-0.224,0.178-0.36,0.258c0.288,0.136,0.5,0.338,0.636,0.606c0.136,0.268,0.204,0.626,0.204,1.074v0.48
		c0,0.752-0.182,1.328-0.546,1.728c-0.364,0.4-0.946,0.6-1.746,0.6H7.476V13.728z M8.7,17.232h0.552
		c0.408,0,0.682-0.102,0.822-0.306c0.14-0.204,0.21-0.502,0.21-0.894c0-0.384-0.078-0.672-0.234-0.864
		c-0.156-0.192-0.438-0.288-0.846-0.288H8.7V17.232z M8.7,21.048h0.528c0.248,0,0.442-0.036,0.582-0.108
		c0.14-0.072,0.246-0.172,0.318-0.3c0.072-0.128,0.116-0.28,0.132-0.456s0.024-0.368,0.024-0.576c0-0.216-0.012-0.404-0.036-0.564
		c-0.024-0.16-0.074-0.294-0.15-0.402c-0.076-0.108-0.182-0.19-0.318-0.246c-0.136-0.056-0.316-0.084-0.54-0.084H8.7V21.048z"/>
	<path d="M12.444,13.728h1.224v6.828c0,0.232,0.042,0.39,0.126,0.474s0.242,0.138,0.474,0.162v1.152
		c-0.28,0-0.534-0.022-0.762-0.066s-0.42-0.128-0.576-0.252c-0.156-0.124-0.276-0.298-0.36-0.522
		c-0.084-0.224-0.126-0.512-0.126-0.864V13.728z"/>
	<path d="M18.408,22.272h-1.224v-0.588H17.16c-0.128,0.192-0.282,0.35-0.462,0.474c-0.18,0.124-0.41,0.186-0.69,0.186
		c-0.152,0-0.304-0.026-0.456-0.078c-0.152-0.052-0.288-0.138-0.408-0.258c-0.12-0.12-0.216-0.274-0.288-0.462
		c-0.072-0.188-0.108-0.418-0.108-0.69v-4.668h1.224V20.4c0,0.224,0.052,0.4,0.156,0.528c0.104,0.128,0.252,0.192,0.444,0.192
		c0.232,0,0.392-0.072,0.48-0.216c0.088-0.144,0.132-0.352,0.132-0.624v-4.092h1.224V22.272z"/>
	<path d="M19.439,18.336h3.612v1.224h-3.612V18.336z"/>
	<path d="M24.083,16.188h1.224v0.648c0.248-0.224,0.492-0.4,0.732-0.528c0.24-0.128,0.536-0.192,0.888-0.192v1.296
		c-0.12-0.048-0.244-0.072-0.372-0.072s-0.266,0.022-0.414,0.066c-0.148,0.044-0.284,0.118-0.408,0.222s-0.226,0.24-0.306,0.408
		c-0.08,0.168-0.12,0.376-0.12,0.624v3.612h-1.224V16.188z"/>
	<path d="M29.735,21.648h-0.024c-0.16,0.224-0.322,0.396-0.486,0.516c-0.164,0.12-0.394,0.18-0.69,0.18
		c-0.144,0-0.292-0.022-0.444-0.066s-0.294-0.124-0.426-0.24c-0.132-0.116-0.24-0.28-0.324-0.492s-0.126-0.486-0.126-0.822
		c0-0.344,0.028-0.646,0.084-0.906c0.056-0.26,0.158-0.476,0.306-0.648c0.148-0.172,0.346-0.3,0.594-0.384
		c0.248-0.084,0.564-0.126,0.948-0.126c0.088,0,0.176,0.004,0.264,0.012c0.088,0.008,0.196,0.016,0.324,0.024V18.06
		c0-0.208-0.044-0.38-0.132-0.516c-0.088-0.136-0.248-0.204-0.48-0.204c-0.16,0-0.306,0.052-0.438,0.156s-0.218,0.256-0.258,0.456
		H27.24c0.04-0.552,0.224-0.992,0.552-1.32c0.16-0.16,0.352-0.286,0.576-0.378c0.224-0.092,0.476-0.138,0.756-0.138
		c0.256,0,0.496,0.04,0.72,0.12c0.224,0.08,0.417,0.2,0.582,0.36c0.164,0.16,0.294,0.36,0.39,0.6c0.096,0.24,0.144,0.521,0.144,0.84
		v4.236h-1.224V21.648z M29.735,19.656c-0.136-0.024-0.248-0.036-0.336-0.036c-0.264,0-0.49,0.062-0.678,0.186
		c-0.188,0.124-0.282,0.35-0.282,0.678c0,0.232,0.056,0.42,0.168,0.564s0.268,0.216,0.468,0.216c0.208,0,0.37-0.068,0.486-0.204
		c0.116-0.136,0.174-0.328,0.174-0.576V19.656z"/>
	<path d="M32.64,16.188l0.84,3.792h0.024l0.828-3.792h1.26l-1.752,7.14c-0.064,0.271-0.154,0.498-0.27,0.678
		c-0.116,0.18-0.25,0.324-0.402,0.432s-0.314,0.184-0.486,0.228c-0.172,0.044-0.35,0.066-0.534,0.066h-0.336V23.58h0.276
		c0.12,0,0.224-0.016,0.312-0.048c0.088-0.032,0.166-0.102,0.234-0.21c0.068-0.108,0.13-0.268,0.186-0.48s0.12-0.494,0.192-0.846
		l-1.668-5.808H32.64z"/>
	<path d="M38.339,18.336h3.612v1.224h-3.612V18.336z"/>
</g>
<g>
</g>
<g>
</g>
<g>
</g>
<g>
</g>
<g>
</g>
<g>
</g>
</svg>
